<svg xmlns="http://www.w3.org/2000/svg" width="11.419" height="15.226" viewBox="0 0 11.419 15.226">
  <g id="Grupo_3129" data-name="Grupo 3129" transform="translate(-969.5 -503)">
    <path id="Caminho_2042" data-name="Caminho 2042" d="M15.136,16.171v.913a1.416,1.416,0,0,1-1.421,1.408H11.381A1.464,1.464,0,0,1,9.96,16.856v-.685Z" transform="translate(962.661 499.733)" fill="#fff"/>
    <path id="Caminho_2043" data-name="Caminho 2043" d="M18.919,11.672a5.62,5.62,0,0,1-2.093,4.39,2.722,2.722,0,0,0-.99,1.573H10.6a2.386,2.386,0,0,0-.926-1.51A5.608,5.608,0,0,1,7.5,11.558,5.738,5.738,0,0,1,13.122,6a5.7,5.7,0,0,1,5.8,5.671Z" transform="translate(962 497)" fill="#fff"/>
  </g>
</svg>
