<svg id="Grupo_3981" data-name="Grupo 3981" xmlns="http://www.w3.org/2000/svg" width="131.537" height="29.797" viewBox="0 0 131.537 29.797">
  <path id="Caminho_2541" data-name="Caminho 2541" d="M1436,228.577h7.409V218.126c0-4.09,0-11.609,6.024-11.609a7.5,7.5,0,0,1,3.316.608v-7.464a8.115,8.115,0,0,0-2.265-.22c-4.423,0-7.464,4.476-7.8,7.13h-.111v-6.465H1436Z" transform="translate(-1436 -199.442)" fill="#003865" fill-rule="evenodd"/>
  <path id="Caminho_2542" data-name="Caminho 2542" d="M1507.675,200.86h-7.41v13.929c0,3.65-1.16,9.456-6.522,9.456-4.754,0-4.811-4.7-4.811-8.184v-15.2h-7.408v17.966c0,6.411,2.929,11.167,9.673,11.167a11.874,11.874,0,0,0,9.345-4.534h.112v3.872h7.022Z" transform="translate(-1460.191 -200.196)" fill="#003865" fill-rule="evenodd"/>
  <path id="Caminho_2543" data-name="Caminho 2543" d="M1553.362,228.577h7.409V214.754c0-3.7.606-9.565,5.525-9.565,4.26,0,4.26,3.759,4.26,6.416v16.973h7.408V214.754c0-3.7.6-9.565,5.528-9.565,4.254,0,4.254,3.759,4.254,6.416v16.973h7.41V210.609c0-6.357-1.994-11.167-9.012-11.167a9.758,9.758,0,0,0-8.9,5.032c-1.605-3.541-4.424-5.032-8.4-5.032a10.028,10.028,0,0,0-8.458,4.643h-.111v-3.978h-6.909Z" transform="translate(-1498.367 -199.442)" fill="#003865" fill-rule="evenodd"/>
  <path id="Caminho_2544" data-name="Caminho 2544" d="M1694.41,214.547l.2-1.582a14.47,14.47,0,0,0-19.487-12.339,11.152,11.152,0,0,1,7.348,2.011,10.948,10.948,0,0,1,2.933,14.852l2.983,4.642a9.472,9.472,0,0,0,6.028-7.584" transform="translate(-1563.068 -199.584)" fill="#003865" fill-rule="evenodd"/>
  <path id="Caminho_2545" data-name="Caminho 2545" d="M1672.126,211.078l1.842-1.588a9.663,9.663,0,0,0-2.909-3.247,9.845,9.845,0,0,0-5.651-1.809,9.289,9.289,0,0,0-5.691,1.941l-1.116.878a14.241,14.241,0,0,0-1.91,2.857,14.631,14.631,0,0,0,.16,13.521,11.154,11.154,0,0,1,.975-7.579,10.94,10.94,0,0,1,14.3-4.974" transform="translate(-1552.438 -202.095)" fill="#003865" fill-rule="evenodd"/>
  <path id="Caminho_2546" data-name="Caminho 2546" d="M1685.879,237.069a11.117,11.117,0,0,1-6.6,3.74,10.9,10.9,0,0,1-12.582-8.423l-4.669-1.013a9.474,9.474,0,0,0,1.893,10.82l1.229,1.185a14.5,14.5,0,0,0,20.733-6.31" transform="translate(-1555.627 -216.411)" fill="#003865" fill-rule="evenodd"/>
</svg>
